<svg xmlns="http://www.w3.org/2000/svg">
    <symbol id="search" viewBox="0 0 24 24">
        <path d="m23.707 22.293-5.969-5.969a10.016 10.016 0 1 0-1.414 1.414l5.969 5.969a1 1 0 0 0 1.414-1.414ZM10 18a8 8 0 1 1 8-8 8.009 8.009 0 0 1-8 8Z"/>
    </symbol>
    <symbol id="arrow_left" viewBox="0 0 24 24">
        <path d="M.88 14.09 4.75 18a1 1 0 0 0 1.42 0 1 1 0 0 0 0-1.42L2.61 13H23a1 1 0 0 0 1-1 1 1 0 0 0-1-1H2.55l3.62-3.62a1 1 0 0 0 0-1.38 1 1 0 0 0-1.42 0L.88 9.85a3 3 0 0 0 0 4.24Z"/>
    </symbol>
    <symbol id="arrow_right" viewBox="0 0 24 24">
        <path d="M23.12 9.91 19.25 6a1 1 0 0 0-1.42 0 1 1 0 0 0 0 1.41L21.39 11H1a1 1 0 0 0-1 1 1 1 0 0 0 1 1h20.45l-3.62 3.61a1 1 0 0 0 0 1.42 1 1 0 0 0 1.42 0l3.87-3.88a3 3 0 0 0 0-4.24Z"/>
    </symbol>
</svg>
