<svg width="303" height="64" viewBox="0 0 303 64" fill="none" xmlns="http://www.w3.org/2000/svg">
<path d="M9.648 53.184C10.8427 51.904 11.7813 50.3467 12.464 48.512C13.1467 46.72 13.488 44.6293 13.488 42.24V3.2H0.24V5.696H10.864V42.048C10.864 44.0107 10.5867 45.76 10.032 47.296C9.52 48.7893 8.79467 50.048 7.856 51.072C6.91733 52.1813 5.78667 53.0133 4.464 53.568C3.184 54.1653 1.776 54.5067 0.24 54.592V57.152C2.07467 57.1093 3.80267 56.7467 5.424 56.064C7.04533 55.3813 8.45333 54.4213 9.648 53.184ZM30.534 26.048C32.198 26.048 33.6913 26.5173 35.014 27.456C36.3793 28.352 37.446 29.5253 38.214 30.976C35.3127 32.128 32.4113 33.28 29.51 34.432C26.6513 35.5413 23.7713 36.672 20.87 37.824C20.5713 36.3733 20.5927 34.9653 20.934 33.6C21.2753 32.192 21.8727 30.9333 22.726 29.824C23.622 28.672 24.7313 27.7547 26.054 27.072C27.4193 26.3893 28.9127 26.048 30.534 26.048ZM38.918 45.12L37.318 43.2C36.422 44.0533 35.398 44.7147 34.246 45.184C33.094 45.6533 31.8567 45.888 30.534 45.888C28.5287 45.888 26.7367 45.376 25.158 44.352C23.5793 43.328 22.406 41.984 21.638 40.32C24.966 38.9547 28.2727 37.632 31.558 36.352C34.886 35.072 38.214 33.7707 41.542 32.448C41.1153 31.168 40.5607 29.9947 39.878 28.928C39.1953 27.8187 38.406 26.88 37.51 26.112C36.5713 25.2587 35.5047 24.6187 34.31 24.192C33.1153 23.7227 31.8567 23.488 30.534 23.488C28.7847 23.488 27.142 23.8293 25.606 24.512C24.1127 25.152 22.79 26.0267 21.638 27.136C20.486 28.2453 19.59 29.568 18.95 31.104C18.31 32.64 17.99 34.2613 17.99 35.968C17.99 37.7173 18.31 39.3387 18.95 40.832C19.59 42.3253 20.486 43.648 21.638 44.8C22.79 45.952 24.1127 46.848 25.606 47.488C27.142 48.128 28.7847 48.448 30.534 48.448C32.198 48.448 33.734 48.1493 35.142 47.552C36.55 46.9547 37.8087 46.144 38.918 45.12ZM58.592 48V45.504H53.6V-3.8147e-06H46.432V2.496H50.976V45.504H46.24V48H58.592ZM75.4045 48V45.504H70.4125V-3.8147e-06H63.2445V2.496H67.7885V45.504H63.0525V48H75.4045ZM95.865 64V61.504H91.769C94.6703 55.616 97.5717 49.792 100.473 44.032C103.374 38.2293 106.276 32.384 109.177 26.496H113.849V24H102.649V26.496H106.361C104.74 29.7387 103.118 32.96 101.497 36.16C99.9183 39.36 98.425 42.5173 97.017 45.632C95.5237 42.432 93.9663 39.2533 92.345 36.096C90.7663 32.9387 89.1877 29.7387 87.609 26.496H91.705V24H79.865V26.496H84.793C86.585 30.1653 88.377 33.792 90.169 37.376C91.961 40.96 93.7743 44.544 95.609 48.128C94.4997 50.3467 93.369 52.5653 92.217 54.784C91.1077 57.0027 90.0197 59.2427 88.953 61.504H83.513V64H95.865ZM135.391 48.512C137.481 48.512 139.38 48.064 141.087 47.168C142.836 46.272 144.287 45.0987 145.439 43.648L148.895 49.216L150.943 47.808L146.783 41.088C147.124 40.32 147.38 39.552 147.551 38.784C147.764 37.9733 147.913 37.1627 147.999 36.352C148.041 35.6267 148.041 34.9013 147.999 34.176C147.999 33.4507 147.999 32.704 147.999 31.936V26.56H154.527V24H145.375V32.896C145.375 33.7067 145.289 34.4747 145.119 35.2C144.948 35.9253 144.713 36.6507 144.415 37.376L130.975 15.488C130.377 14.5067 129.929 13.504 129.631 12.48C129.375 11.4133 129.311 10.368 129.439 9.344C129.567 8.448 129.887 7.552 130.399 6.656C130.911 5.76 131.657 4.928 132.639 4.16C133.449 3.52 134.303 3.09333 135.199 2.88C136.137 2.624 137.119 2.56 138.143 2.688C139.167 2.816 140.191 3.11466 141.215 3.584C142.281 4.05333 143.22 4.52266 144.031 4.992L145.119 2.816C144.223 2.26133 143.156 1.728 141.919 1.216C140.724 0.703999 139.444 0.383998 138.079 0.255997C136.713 0.127998 135.412 0.234665 134.175 0.575996C132.937 0.874664 131.785 1.42933 130.719 2.24C129.524 3.17867 128.607 4.224 127.967 5.376C127.327 6.48533 126.943 7.65866 126.815 8.896C126.687 10.0907 126.772 11.328 127.071 12.608C127.412 13.8453 127.945 15.0613 128.671 16.256L133.215 23.744C131.721 24 130.335 24.4907 129.055 25.216C127.817 25.9413 126.729 26.8373 125.791 27.904C124.852 29.0133 124.127 30.272 123.615 31.68C123.103 33.0453 122.847 34.496 122.847 36.032C122.847 37.7813 123.167 39.4027 123.807 40.896C124.447 42.3893 125.343 43.6907 126.495 44.8C127.604 45.952 128.927 46.8693 130.463 47.552C131.999 48.192 133.641 48.512 135.391 48.512ZM135.391 45.952C133.983 45.952 132.681 45.696 131.487 45.184C130.292 44.672 129.247 43.968 128.351 43.072C127.455 42.176 126.751 41.1307 126.239 39.936C125.727 38.7413 125.47 37.44 125.47 36.032C125.47 34.7093 125.684 33.472 126.111 32.32C126.537 31.168 127.156 30.144 127.967 29.248C128.82 28.3947 129.823 27.6907 130.975 27.136C132.127 26.5813 133.364 26.2613 134.687 26.176L143.903 41.152C143.049 42.6027 141.876 43.776 140.383 44.672C138.889 45.5253 137.225 45.952 135.391 45.952ZM175.979 48V45.504H170.667V28.096L176.235 22.784C179.222 26.5813 182.187 30.3787 185.131 34.176C188.118 37.9307 191.104 41.7067 194.091 45.504H190.187V48H202.539V45.504H197.291C194.091 41.408 190.891 37.3333 187.691 33.28C184.491 29.2267 181.27 25.152 178.027 21.056L194.155 5.696H199.659V3.2H187.307V5.696H190.699L171.755 23.872L170.539 25.216C170.582 24.8747 170.603 24.5547 170.603 24.256C170.646 23.9573 170.667 23.6373 170.667 23.296V5.696H175.467V3.2H163.115V5.696H168.043V45.504H163.115V48H175.979ZM219.534 26.048C221.198 26.048 222.691 26.5173 224.014 27.456C225.379 28.352 226.446 29.5253 227.214 30.976C224.313 32.128 221.411 33.28 218.51 34.432C215.651 35.5413 212.771 36.672 209.87 37.824C209.571 36.3733 209.593 34.9653 209.934 33.6C210.275 32.192 210.873 30.9333 211.726 29.824C212.622 28.672 213.731 27.7547 215.054 27.072C216.419 26.3893 217.913 26.048 219.534 26.048ZM227.918 45.12L226.318 43.2C225.422 44.0533 224.398 44.7147 223.246 45.184C222.094 45.6533 220.857 45.888 219.534 45.888C217.529 45.888 215.737 45.376 214.158 44.352C212.579 43.328 211.406 41.984 210.638 40.32C213.966 38.9547 217.273 37.632 220.558 36.352C223.886 35.072 227.214 33.7707 230.542 32.448C230.115 31.168 229.561 29.9947 228.878 28.928C228.195 27.8187 227.406 26.88 226.51 26.112C225.571 25.2587 224.505 24.6187 223.31 24.192C222.115 23.7227 220.857 23.488 219.534 23.488C217.785 23.488 216.142 23.8293 214.606 24.512C213.113 25.152 211.79 26.0267 210.638 27.136C209.486 28.2453 208.59 29.568 207.95 31.104C207.31 32.64 206.99 34.2613 206.99 35.968C206.99 37.7173 207.31 39.3387 207.95 40.832C208.59 42.3253 209.486 43.648 210.638 44.8C211.79 45.952 213.113 46.848 214.606 47.488C216.142 48.128 217.785 48.448 219.534 48.448C221.198 48.448 222.734 48.1493 224.142 47.552C225.55 46.9547 226.809 46.144 227.918 45.12ZM247.592 48V45.504H242.6V-3.8147e-06H235.432V2.496H239.976V45.504H235.24V48H247.592ZM264.405 48V45.504H259.413V-3.8147e-06H252.245V2.496H256.789V45.504H252.053V48H264.405ZM284.865 64V61.504H280.769C283.67 55.616 286.572 49.792 289.473 44.032C292.374 38.2293 295.276 32.384 298.177 26.496H302.849V24H291.649V26.496H295.361C293.74 29.7387 292.118 32.96 290.497 36.16C288.918 39.36 287.425 42.5173 286.017 45.632C284.524 42.432 282.966 39.2533 281.345 36.096C279.766 32.9387 278.188 29.7387 276.609 26.496H280.705V24H268.865V26.496H273.793C275.585 30.1653 277.377 33.792 279.169 37.376C280.961 40.96 282.774 44.544 284.609 48.128C283.5 50.3467 282.369 52.5653 281.217 54.784C280.108 57.0027 279.02 59.2427 277.953 61.504H272.513V64H284.865Z" fill="black"/>
</svg>
